<svg id="footer_logo" xmlns="http://www.w3.org/2000/svg" width="196.745" height="28.168" viewBox="0 0 196.745 28.168">
  <defs>
    <style>
      .cls-1 {
        fill: #4e69a3;
      }

      .cls-2 {
        fill: #0c3388;
      }
    </style>
  </defs>
  <g id="BrightFuture" transform="translate(-168.229 -284.848)">
    <g id="グループ_503" data-name="グループ 503">
      <path id="パス_152" data-name="パス 152" d="M224.208,296.789a4.27,4.27,0,0,1,1.358,3.206,4.962,4.962,0,0,1-.755,2.689,5.3,5.3,0,0,1-2.059,1.889,6.172,6.172,0,0,1-2.926.687q-.9,0-1.96-.084c-.262-.02-.569-.037-.924-.057s-.755-.027-1.2-.027l-1.932.027c-.354.02-.83.028-1.428.028-.037,0-.056-.055-.056-.168s.019-.167.056-.167a5.32,5.32,0,0,0,1.5-.155,1.029,1.029,0,0,0,.672-.546,3.1,3.1,0,0,0,.182-1.231V289.915a3.331,3.331,0,0,0-.168-1.231.979.979,0,0,0-.644-.546,5.2,5.2,0,0,0-1.484-.155c-.056,0-.084-.055-.084-.168s.028-.168.084-.168l1.372.029q1.176.056,1.932.055c.336,0,.649-.008.938-.028s.537-.037.742-.056c.579-.055,1.129-.084,1.652-.084a5.523,5.523,0,0,1,3.612,1.008,3.329,3.329,0,0,1,1.2,2.689,3.655,3.655,0,0,1-.867,2.393,5.662,5.662,0,0,1-2.409,1.638A5.746,5.746,0,0,1,224.208,296.789Zm-6.748-8.651a.884.884,0,0,0-.518.546,3.69,3.69,0,0,0-.168,1.288v5.319l1.26.028a3.629,3.629,0,0,0,2.87-1.063,4.083,4.083,0,0,0,.938-2.8,3.7,3.7,0,0,0-.812-2.506,3.158,3.158,0,0,0-2.52-.937A3.288,3.288,0,0,0,217.46,288.138Zm4.942,15.54a4.207,4.207,0,0,0,.98-2.983,4.821,4.821,0,0,0-1.217-3.429,4.474,4.474,0,0,0-3.374-1.33q-.784-.029-2.017.055v6.889a2.341,2.341,0,0,0,.21,1.092,1.269,1.269,0,0,0,.77.574,5.681,5.681,0,0,0,1.652.182A3.911,3.911,0,0,0,222.4,303.678Z"/>
      <path id="パス_153" data-name="パス 153" d="M237.116,294.451a1.037,1.037,0,0,1,.574.868.9.9,0,0,1-.266.659.968.968,0,0,1-.714.265.949.949,0,0,1-.476-.111,2.8,2.8,0,0,1-.448-.336,3.323,3.323,0,0,0-.49-.337,1.1,1.1,0,0,0-.518-.111,1.247,1.247,0,0,0-.742.28,9.859,9.859,0,0,0-1.218,1.231v6.021a2.746,2.746,0,0,0,.21,1.218,1.15,1.15,0,0,0,.77.559,6.881,6.881,0,0,0,1.708.155c.056,0,.084.055.084.167s-.028.168-.084.168c-.616,0-1.111-.008-1.484-.028l-2.1-.027-1.512.027c-.262.02-.616.028-1.064.028-.056,0-.084-.055-.084-.168s.028-.167.084-.167a2.805,2.805,0,0,0,1.078-.155.849.849,0,0,0,.476-.559,4.4,4.4,0,0,0,.126-1.218v-5.488a3.007,3.007,0,0,0-.224-1.344.765.765,0,0,0-.728-.42,4.935,4.935,0,0,0-1.484.42h-.028a.18.18,0,0,1-.168-.126.123.123,0,0,1,.056-.183l3.36-1.624.168-.027q.279,0,.546.63a4.606,4.606,0,0,1,.294,1.637,12.04,12.04,0,0,1,1.82-1.792,2.247,2.247,0,0,1,1.288-.475A2.2,2.2,0,0,1,237.116,294.451Z"/>
      <path id="パス_154" data-name="パス 154" d="M240.854,304.979c0-.112.028-.167.084-.167a1.84,1.84,0,0,0,1.372-.378,2.487,2.487,0,0,0,.336-1.554v-5.208a3.838,3.838,0,0,0-.2-1.429.7.7,0,0,0-.7-.447,2.871,2.871,0,0,0-1.232.392h-.028c-.075,0-.131-.047-.168-.14s-.019-.159.056-.2l3.724-1.737.112-.027a.286.286,0,0,1,.182.084.23.23,0,0,1,.1.168c0,.131-.01.5-.028,1.119s-.028,1.345-.028,2.185v5.236a4.4,4.4,0,0,0,.126,1.218.843.843,0,0,0,.49.559,2.911,2.911,0,0,0,1.092.155c.056,0,.084.055.084.167s-.028.168-.084.168c-.467,0-.831-.008-1.092-.028l-1.512-.027-1.568.027c-.262.02-.607.028-1.036.028C240.882,305.147,240.854,305.092,240.854,304.979Zm1.526-14.419a1.256,1.256,0,0,1-.35-.953,1.18,1.18,0,0,1,.35-.895,1.332,1.332,0,0,1,.966-.337,1.245,1.245,0,0,1,.924.337,1.209,1.209,0,0,1,.336.895,1.288,1.288,0,0,1-.336.953,1.253,1.253,0,0,1-.924.336A1.34,1.34,0,0,1,242.38,290.56Z"/>
      <path id="パス_155" data-name="パス 155" d="M257.738,304.546a3.379,3.379,0,0,1,1.722.756,2.4,2.4,0,0,1,.77,1.973,4.689,4.689,0,0,1-.98,2.857,6.963,6.963,0,0,1-2.59,2.1,7.673,7.673,0,0,1-3.4.785,4.817,4.817,0,0,1-3.038-.882,2.71,2.71,0,0,1-1.134-2.227q0-2.043,2.856-4.032a3.363,3.363,0,0,1-1.568-.615,1.585,1.585,0,0,1-.56-1.317,2.566,2.566,0,0,1,.49-1.526,7.254,7.254,0,0,1,1.526-1.47,3.741,3.741,0,0,1-1.54-1.33,3.319,3.319,0,0,1-.56-1.861,3.148,3.148,0,0,1,1.3-2.605,5.168,5.168,0,0,1,3.262-1.007,4.692,4.692,0,0,1,2.912.868,8.575,8.575,0,0,1,1.484-.687,4.679,4.679,0,0,1,1.512-.237c.056,0,.1.069.126.21a2.361,2.361,0,0,1,.042.462,3.106,3.106,0,0,1-.084.7c-.056.243-.122.346-.2.309a4.419,4.419,0,0,0-1.9-.42,4.675,4.675,0,0,0-.588.027,3.374,3.374,0,0,1,.924,2.353,3.15,3.15,0,0,1-.588,1.847,4.171,4.171,0,0,1-1.61,1.345,5.158,5.158,0,0,1-2.31.5,5.911,5.911,0,0,1-1.764-.28,3.126,3.126,0,0,0-.728.811,1.714,1.714,0,0,0-.224.868,1.22,1.22,0,0,0,.392.981,2.457,2.457,0,0,0,1.232.462,16.825,16.825,0,0,0,2.352.126A22.53,22.53,0,0,1,257.738,304.546Zm-.224,6.607a3.358,3.358,0,0,0,1.148-2.674,2.256,2.256,0,0,0-.532-1.652,2.5,2.5,0,0,0-1.414-.672,19.028,19.028,0,0,0-2.478-.168q-1.121,0-1.624-.055a4.626,4.626,0,0,0-1.3,1.246,2.96,2.96,0,0,0-.462,1.693,3.049,3.049,0,0,0,.98,2.408,3.914,3.914,0,0,0,2.688.868A4.418,4.418,0,0,0,257.514,311.153Zm-5.376-15.96a2.867,2.867,0,0,0-.5,1.863,4.83,4.83,0,0,0,.434,2.128,3.388,3.388,0,0,0,1.106,1.357A2.471,2.471,0,0,0,254.6,301a1.784,1.784,0,0,0,1.442-.658,3.09,3.09,0,0,0,.546-2,4.037,4.037,0,0,0-.882-2.731,2.733,2.733,0,0,0-2.142-1.021A1.759,1.759,0,0,0,252.138,295.193Z"/>
      <path id="パス_156" data-name="パス 156" d="M275.35,304.979c0,.113-.028.168-.084.168-.467,0-.831-.008-1.092-.028l-1.512-.027-1.568.027c-.262.02-.607.028-1.036.028-.057,0-.084-.055-.084-.168s.027-.167.084-.167a1.84,1.84,0,0,0,1.372-.378,2.487,2.487,0,0,0,.336-1.554v-4.368a3.938,3.938,0,0,0-.616-2.437,2.275,2.275,0,0,0-1.9-.784,3.72,3.72,0,0,0-1.694.435A5.5,5.5,0,0,0,266,296.915v5.965a2.5,2.5,0,0,0,.335,1.554,1.892,1.892,0,0,0,1.4.378c.056,0,.084.055.084.167s-.028.168-.084.168c-.467,0-.831-.008-1.092-.028l-1.512-.027-1.568.027c-.262.02-.607.028-1.036.028-.056,0-.084-.055-.084-.168s.028-.167.084-.167a1.836,1.836,0,0,0,1.371-.378,2.479,2.479,0,0,0,.337-1.554V288.459a3.927,3.927,0,0,0-.2-1.455.684.684,0,0,0-.672-.448,3.408,3.408,0,0,0-1.232.391h-.029a.206.206,0,0,1-.181-.139c-.047-.094-.033-.159.042-.2l3.668-1.763h.084a.266.266,0,0,1,.2.084.24.24,0,0,1,.084.168v11.311a5.762,5.762,0,0,1,4.312-2.38,3.1,3.1,0,0,1,2.379.9,3.579,3.579,0,0,1,.841,2.548v5.4a2.487,2.487,0,0,0,.336,1.554,1.887,1.887,0,0,0,1.4.378C275.322,304.812,275.35,304.867,275.35,304.979Z"/>
      <path id="パス_157" data-name="パス 157" d="M285.737,303.607c.056,0,.1.042.14.126s.028.145-.028.182a8.316,8.316,0,0,1-1.876,1.2,4.451,4.451,0,0,1-1.792.364,3.284,3.284,0,0,1-1.946-.545,2.062,2.062,0,0,1-.77-1.806v-6.525a3.28,3.28,0,0,0-.111-.994.674.674,0,0,0-.407-.433,2.838,2.838,0,0,0-.938-.113c-.056,0-.084-.065-.084-.2s.028-.2.084-.2a3.235,3.235,0,0,0,1.918-.588,2.369,2.369,0,0,0,.91-1.568c.018-.056.094-.084.225-.084s.195.028.195.084v2.127q1.344-.027,3.836-.28c.056,0,.1.066.14.2a1.616,1.616,0,0,1,.057.449,1.454,1.454,0,0,1-.085.489c-.056.159-.122.229-.2.211a18.977,18.977,0,0,0-3.752-.421v6.889a1.956,1.956,0,0,0,2.184,2.24,3.722,3.722,0,0,0,2.24-.784Z"/>
      <path id="パス_158" data-name="パス 158" d="M300.409,291.4c0,.056-.051.084-.154.084s-.154-.028-.154-.084a3.6,3.6,0,0,0-1.036-2.324,3.188,3.188,0,0,0-2.268-.811h-1.54a2.948,2.948,0,0,0-1.708.349,1.615,1.615,0,0,0-.448,1.33v6.132h2.688a3.781,3.781,0,0,0,2.184-.489,1.764,1.764,0,0,0,.673-1.526c0-.038.055-.056.167-.056s.168.018.168.056l-.028,2.324q0,.811.028,1.231l.028,1.4c0,.037-.056.055-.168.055s-.168-.018-.168-.055a2.122,2.122,0,0,0-.7-1.779,3.717,3.717,0,0,0-2.268-.546h-2.6v6.077a2.689,2.689,0,0,0,.238,1.3,1.392,1.392,0,0,0,.924.575,10.042,10.042,0,0,0,2.17.168c.038,0,.056.055.056.167s-.018.168-.056.168c-.766,0-1.363-.008-1.792-.028l-2.6-.027-1.9.027c-.355.02-.84.028-1.456.028-.056,0-.084-.055-.084-.168s.028-.167.084-.167a6.056,6.056,0,0,0,1.526-.14.985.985,0,0,0,.672-.547,3.2,3.2,0,0,0,.182-1.245V289.915a3.331,3.331,0,0,0-.168-1.231.979.979,0,0,0-.644-.546,5.331,5.331,0,0,0-1.512-.155c-.037,0-.056-.055-.056-.168s.019-.168.056-.168H300.1a.223.223,0,0,1,.253.252Z"/>
      <path id="パス_159" data-name="パス 159" d="M316.677,303.495c.075,0,.126.047.155.141s.013.158-.042.2l-3.389,1.6-.111.027q-.281,0-.533-.672a5.013,5.013,0,0,1-.252-1.735,5.944,5.944,0,0,1-4.368,2.351,2.868,2.868,0,0,1-2.24-.895,3.668,3.668,0,0,1-.812-2.549v-4.283a4.7,4.7,0,0,0-.182-1.54.643.643,0,0,0-.63-.477,2.55,2.55,0,0,0-.924.252h-.056c-.056,0-.1-.046-.126-.139s-.014-.15.042-.168l3.22-1.485.113-.027a.337.337,0,0,1,.2.084.223.223,0,0,1,.112.168v6.58q0,3.219,2.352,3.22a3.913,3.913,0,0,0,1.708-.42,5.61,5.61,0,0,0,1.6-1.176v-4.872a4.393,4.393,0,0,0-.2-1.54.668.668,0,0,0-.644-.477,2.549,2.549,0,0,0-.925.252h-.055c-.057,0-.094-.046-.113-.139s0-.15.056-.168l3.22-1.485.112-.027a.287.287,0,0,1,.183.084.232.232,0,0,1,.1.168V302.1a3.1,3.1,0,0,0,.224,1.372.766.766,0,0,0,.728.42,4.978,4.978,0,0,0,1.429-.365Z"/>
      <path id="パス_160" data-name="パス 160" d="M326.757,303.607c.056,0,.1.042.14.126s.028.145-.028.182a8.316,8.316,0,0,1-1.876,1.2,4.451,4.451,0,0,1-1.792.364,3.284,3.284,0,0,1-1.946-.545,2.062,2.062,0,0,1-.77-1.806v-6.525a3.28,3.28,0,0,0-.111-.994.674.674,0,0,0-.407-.433,2.838,2.838,0,0,0-.938-.113c-.056,0-.084-.065-.084-.2s.028-.2.084-.2a3.235,3.235,0,0,0,1.918-.588,2.369,2.369,0,0,0,.91-1.568c.018-.056.094-.084.225-.084s.2.028.2.084v2.127q1.344-.027,3.836-.28c.056,0,.1.066.14.2a1.616,1.616,0,0,1,.057.449,1.454,1.454,0,0,1-.085.489c-.056.159-.121.229-.2.211a18.977,18.977,0,0,0-3.752-.421v6.889a1.956,1.956,0,0,0,2.184,2.24,3.722,3.722,0,0,0,2.24-.784Z"/>
      <path id="パス_161" data-name="パス 161" d="M342.241,303.495c.074,0,.126.047.154.141s.014.158-.042.2l-3.388,1.6-.112.027q-.281,0-.532-.672a5.013,5.013,0,0,1-.252-1.735A5.943,5.943,0,0,1,333.7,305.4a2.867,2.867,0,0,1-2.24-.895,3.663,3.663,0,0,1-.812-2.549v-4.283a4.694,4.694,0,0,0-.182-1.54.645.645,0,0,0-.63-.477,2.55,2.55,0,0,0-.924.252h-.056c-.056,0-.1-.046-.126-.139s-.014-.15.042-.168l3.22-1.485.112-.027a.339.339,0,0,1,.2.084.226.226,0,0,1,.112.168v6.58q0,3.219,2.352,3.22a3.916,3.916,0,0,0,1.708-.42,5.637,5.637,0,0,0,1.6-1.176v-4.872a4.388,4.388,0,0,0-.2-1.54.668.668,0,0,0-.644-.477,2.55,2.55,0,0,0-.924.252h-.056c-.056,0-.094-.046-.112-.139s0-.15.056-.168l3.22-1.485.112-.027a.286.286,0,0,1,.182.084.23.23,0,0,1,.1.168V302.1a3.085,3.085,0,0,0,.224,1.372.765.765,0,0,0,.728.42,4.966,4.966,0,0,0,1.428-.365Z"/>
      <path id="パス_162" data-name="パス 162" d="M352.531,294.451a1.037,1.037,0,0,1,.574.868.9.9,0,0,1-.266.659.968.968,0,0,1-.714.265.949.949,0,0,1-.476-.111,2.8,2.8,0,0,1-.448-.336,3.321,3.321,0,0,0-.49-.337,1.1,1.1,0,0,0-.518-.111,1.247,1.247,0,0,0-.742.28,9.86,9.86,0,0,0-1.218,1.231v6.021a2.746,2.746,0,0,0,.21,1.218,1.15,1.15,0,0,0,.77.559,6.881,6.881,0,0,0,1.708.155c.056,0,.084.055.084.167s-.028.168-.084.168c-.616,0-1.111-.008-1.484-.028l-2.1-.027-1.512.027c-.262.02-.616.028-1.064.028-.056,0-.084-.055-.084-.168s.028-.167.084-.167a2.805,2.805,0,0,0,1.078-.155.849.849,0,0,0,.476-.559,4.4,4.4,0,0,0,.126-1.218v-5.488a3.007,3.007,0,0,0-.224-1.344.765.765,0,0,0-.728-.42,4.934,4.934,0,0,0-1.484.42h-.028a.18.18,0,0,1-.168-.126.123.123,0,0,1,.056-.183l3.36-1.624.168-.027q.279,0,.546.63a4.607,4.607,0,0,1,.294,1.637,12.039,12.039,0,0,1,1.82-1.792,2.247,2.247,0,0,1,1.288-.475A2.2,2.2,0,0,1,352.531,294.451Z"/>
      <path id="パス_163" data-name="パス 163" d="M364.781,303.523a.2.2,0,0,1,.154.1.152.152,0,0,1,.014.183,6.074,6.074,0,0,1-4.144,1.679,5.2,5.2,0,0,1-2.828-.742,4.841,4.841,0,0,1-1.792-1.987,6.121,6.121,0,0,1,.182-5.7,5.943,5.943,0,0,1,5.194-2.968,3.43,3.43,0,0,1,2.478.825,3.143,3.143,0,0,1,.854,2.366q0,.756-.336.756l-6.916.028c-.038.412-.056.728-.056.953a6.231,6.231,0,0,0,1.148,3.92,3.868,3.868,0,0,0,3.248,1.484,4.119,4.119,0,0,0,1.414-.211,8.031,8.031,0,0,0,1.358-.686Zm-6.1-8.078a4.069,4.069,0,0,0-.98,2.227l5.1-.112a3.5,3.5,0,0,0-.574-2.17,1.922,1.922,0,0,0-1.61-.743A2.544,2.544,0,0,0,358.677,295.445Z"/>
    </g>
  </g>
  <path id="シンボルマーク2" class="cls-1" d="M201.092,294.307l-27.773,9.4,11.336,4.979Z" transform="translate(-168.229 -284.848)"/>
  <path id="シンボルマーク1" class="cls-2" d="M197.621,287.538l-29.392,14.385,12,7.615Z" transform="translate(-168.229 -284.848)"/>
</svg>
